# xmcd
#
# Track frame offsets: 
#        182
#        25237
#        46675
#        75155
#        96870
#        115930
#        127882
#        147697
#        167275
#
# Disc length: 2489 seconds
#
# Revision: 52
# Processed by: cddbd v1.5.2PL0 Copyright (c) Steve Scherf et al.
# Submitted via: ExactAudioCopy v0.99pb5
#
DISCID=6409b709
DTITLE=Led Zeppelin - The Complete Studio Recordings - Led Zeppelin II
DTITLE=(2 0f 10)
DYEAR=1969
DGENRE=Classic Rock
TTITLE0=Whole Lotta Love
TTITLE1=What Is And What Should Never Be
TTITLE2=The Lemon Song
TTITLE3=Thank You
TTITLE4=Heartbreaker
TTITLE5=Living Loving Maid (She's Just A Woman)
TTITLE6=Ramble On
TTITLE7=Moby Dick
TTITLE8=Bring It On Home
EXTD=YEAR: 1969 ID3G: 17
EXTT0=
EXTT1=
EXTT2=
EXTT3=
EXTT4=
EXTT5=
EXTT6=
EXTT7=
EXTT8=
PLAYORDER=
